STARTFONT 2.1
COMMENT screen bold font, 7 x 13 pixels
FONT -misc-fixed-bold-r-normal-sans-13-120-75-75-c-70-iso8859-2
SIZE 13 75 75
FONTBOUNDINGBOX 7 13 0 -2
STARTPROPERTIES 27
FONT_ASCENT 11
FONT_DESCENT 2
DEFAULT_CHAR 0
FONTNAME_REGISTRY ""
FOUNDRY "Misc"
FAMILY_NAME "Fixed"
WEIGHT_NAME "Bold"
SLANT "R"
SETWIDTH_NAME "Normal"
ADD_STYLE_NAME "Sans"
PIXEL_SIZE 13
POINT_SIZE 120
RESOLUTION_X 75
RESOLUTION_Y 75
SPACING "C"
AVERAGE_WIDTH 70
CHARSET_REGISTRY "ISO8859"
CHARSET_ENCODING "2"
UNDERLINE_POSITION -1
DESTINATION 1
COPYRIGHT "Libor Skarvada, libor@informatics.muni.cz"
FONT "-Misc-Fixed-Bold-R-Normal-sans-13-120-75-75-C-70-ISO8859-2"
WEIGHT 10
RESOLUTION 107
CAP_HEIGHT 8
X_HEIGHT 6
QUAD_WIDTH 7
ENDPROPERTIES
CHARS 224
STARTCHAR 0
ENCODING 0
SWIDTH 560 0
DWIDTH 7 0
BBX 1 1 0 -2
BITMAP
00
ENDCHAR
STARTCHAR 1
ENCODING 1
SWIDTH 560 0
DWIDTH 7 0
BBX 6 5 0 1
BITMAP
30
78
fc
78
30
ENDCHAR
STARTCHAR 2
ENCODING 2
SWIDTH 560 0
DWIDTH 7 0
BBX 6 11 0 -1
BITMAP
cc
30
cc
30
cc
30
cc
30
cc
30
cc
ENDCHAR
STARTCHAR 3
ENCODING 3
SWIDTH 560 0
DWIDTH 7 0
BBX 6 11 0 -1
BITMAP
d8
d8
f8
d8
d8
00
3c
18
18
18
18
ENDCHAR
STARTCHAR 4
ENCODING 4
SWIDTH 560 0
DWIDTH 7 0
BBX 6 11 0 -1
BITMAP
f0
c0
e0
c0
c0
00
3c
30
38
30
30
ENDCHAR
STARTCHAR 5
ENCODING 5
SWIDTH 560 0
DWIDTH 7 0
BBX 6 11 0 -1
BITMAP
70
c0
c0
c0
70
00
38
34
38
34
34
ENDCHAR
STARTCHAR 6
ENCODING 6
SWIDTH 560 0
DWIDTH 7 0
BBX 6 11 0 -1
BITMAP
c0
c0
c0
c0
f0
00
3c
30
38
30
30
ENDCHAR
STARTCHAR 7
ENCODING 7
SWIDTH 560 0
DWIDTH 7 0
BBX 6 4 0 5
BITMAP
78
cc
cc
78
ENDCHAR
STARTCHAR 8
ENCODING 8
SWIDTH 560 0
DWIDTH 7 0
BBX 6 9 0 0
BITMAP
30
30
fc
fc
30
30
00
fc
fc
ENDCHAR
STARTCHAR 9
ENCODING 9
SWIDTH 560 0
DWIDTH 7 0
BBX 6 11 0 -1
BITMAP
cc
ec
fc
dc
cc
00
30
30
30
30
3c
ENDCHAR
STARTCHAR 10
ENCODING 10
SWIDTH 560 0
DWIDTH 7 0
BBX 6 11 0 -1
BITMAP
cc
cc
48
78
30
00
3c
18
18
18
18
ENDCHAR
STARTCHAR 11
ENCODING 11
SWIDTH 560 0
DWIDTH 7 0
BBX 4 8 0 3
BITMAP
30
30
30
30
30
30
f0
f0
ENDCHAR
STARTCHAR 12
ENCODING 12
SWIDTH 560 0
DWIDTH 7 0
BBX 4 7 0 -2
BITMAP
f0
f0
30
30
30
30
30
ENDCHAR
STARTCHAR 13
ENCODING 13
SWIDTH 560 0
DWIDTH 7 0
BBX 5 7 2 -2
BITMAP
f8
f8
c0
c0
c0
c0
c0
ENDCHAR
STARTCHAR 14
ENCODING 14
SWIDTH 560 0
DWIDTH 7 0
BBX 5 8 2 3
BITMAP
c0
c0
c0
c0
c0
c0
f8
f8
ENDCHAR
STARTCHAR 15
ENCODING 15
SWIDTH 560 0
DWIDTH 7 0
BBX 7 13 0 -2
BITMAP
30
30
30
30
30
30
fe
fe
30
30
30
30
30
ENDCHAR
STARTCHAR 16
ENCODING 16
SWIDTH 560 0
DWIDTH 7 0
BBX 7 2 0 7
BITMAP
fe
fe
ENDCHAR
STARTCHAR 17
ENCODING 17
SWIDTH 560 0
DWIDTH 7 0
BBX 7 2 0 5
BITMAP
fe
fe
ENDCHAR
STARTCHAR 18
ENCODING 18
SWIDTH 560 0
DWIDTH 7 0
BBX 7 2 0 3
BITMAP
fe
fe
ENDCHAR
STARTCHAR 19
ENCODING 19
SWIDTH 560 0
DWIDTH 7 0
BBX 7 2 0 1
BITMAP
fe
fe
ENDCHAR
STARTCHAR 20
ENCODING 20
SWIDTH 560 0
DWIDTH 7 0
BBX 7 2 0 -1
BITMAP
fe
fe
ENDCHAR
STARTCHAR 21
ENCODING 21
SWIDTH 560 0
DWIDTH 7 0
BBX 5 13 2 -2
BITMAP
c0
c0
c0
c0
c0
c0
f8
f8
c0
c0
c0
c0
c0
ENDCHAR
STARTCHAR 22
ENCODING 22
SWIDTH 560 0
DWIDTH 7 0
BBX 4 13 0 -2
BITMAP
30
30
30
30
30
30
f0
f0
30
30
30
30
30
ENDCHAR
STARTCHAR 23
ENCODING 23
SWIDTH 560 0
DWIDTH 7 0
BBX 7 8 0 3
BITMAP
30
30
30
30
30
30
fe
fe
ENDCHAR
STARTCHAR 24
ENCODING 24
SWIDTH 560 0
DWIDTH 7 0
BBX 7 7 0 -2
BITMAP
fe
fe
30
30
30
30
30
ENDCHAR
STARTCHAR 25
ENCODING 25
SWIDTH 560 0
DWIDTH 7 0
BBX 2 13 2 -2
BITMAP
c0
c0
c0
c0
c0
c0
c0
c0
c0
c0
c0
c0
c0
ENDCHAR
STARTCHAR 26
ENCODING 26
SWIDTH 560 0
DWIDTH 7 0
BBX 6 9 0 0
BITMAP
0c
18
60
c0
60
18
0c
fc
fc
ENDCHAR
STARTCHAR 27
ENCODING 27
SWIDTH 560 0
DWIDTH 7 0
BBX 6 9 0 0
BITMAP
c0
60
18
0c
18
60
c0
fc
fc
ENDCHAR
STARTCHAR 28
ENCODING 28
SWIDTH 560 0
DWIDTH 7 0
BBX 6 6 0 0
BITMAP
fc
6c
6c
6c
ec
cc
ENDCHAR
STARTCHAR 29
ENCODING 29
SWIDTH 560 0
DWIDTH 7 0
BBX 6 9 0 0
BITMAP
04
0c
fc
fc
30
fc
fc
c0
80
ENDCHAR
STARTCHAR 30
ENCODING 30
SWIDTH 560 0
DWIDTH 7 0
BBX 6 9 0 0
BITMAP
38
6c
60
60
f8
60
60
6c
b8
ENDCHAR
STARTCHAR 31
ENCODING 31
SWIDTH 560 0
DWIDTH 7 0
BBX 2 2 2 3
BITMAP
c0
c0
ENDCHAR
STARTCHAR 32
ENCODING 32
SWIDTH 560 0
DWIDTH 7 0
BBX 1 1 0 -2
BITMAP
00
ENDCHAR
STARTCHAR 33
ENCODING 33
SWIDTH 560 0
DWIDTH 7 0
BBX 2 8 2 0
BITMAP
c0
c0
c0
c0
c0
00
c0
c0
ENDCHAR
STARTCHAR 34
ENCODING 34
SWIDTH 560 0
DWIDTH 7 0
BBX 5 3 1 6
BITMAP
d8
d8
d8
ENDCHAR
STARTCHAR 35
ENCODING 35
SWIDTH 560 0
DWIDTH 7 0
BBX 5 9 1 0
BITMAP
50
50
f8
f8
50
f8
f8
50
50
ENDCHAR
STARTCHAR 36
ENCODING 36
SWIDTH 560 0
DWIDTH 7 0
BBX 6 9 0 0
BITMAP
30
78
b4
b0
78
34
b4
78
30
ENDCHAR
STARTCHAR 37
ENCODING 37
SWIDTH 560 0
DWIDTH 7 0
BBX 6 9 0 0
BITMAP
e4
ac
e8
18
30
60
5c
d4
9c
ENDCHAR
STARTCHAR 38
ENCODING 38
SWIDTH 560 0
DWIDTH 7 0
BBX 6 8 0 0
BITMAP
70
d8
d8
70
d4
dc
d8
74
ENDCHAR
STARTCHAR 39
ENCODING 39
SWIDTH 560 0
DWIDTH 7 0
BBX 4 4 1 5
BITMAP
70
70
60
c0
ENDCHAR
STARTCHAR 40
ENCODING 40
SWIDTH 560 0
DWIDTH 7 0
BBX 4 9 1 0
BITMAP
30
60
60
c0
c0
c0
60
60
30
ENDCHAR
STARTCHAR 41
ENCODING 41
SWIDTH 560 0
DWIDTH 7 0
BBX 4 9 1 0
BITMAP
c0
60
60
30
30
30
60
60
c0
ENDCHAR
STARTCHAR 42
ENCODING 42
SWIDTH 560 0
DWIDTH 7 0
BBX 6 6 0 1
BITMAP
48
30
fc
fc
30
48
ENDCHAR
STARTCHAR 43
ENCODING 43
SWIDTH 560 0
DWIDTH 7 0
BBX 6 6 0 1
BITMAP
30
30
fc
fc
30
30
ENDCHAR
STARTCHAR 44
ENCODING 44
SWIDTH 560 0
DWIDTH 7 0
BBX 4 4 1 -1
BITMAP
70
70
60
c0
ENDCHAR
STARTCHAR 45
ENCODING 45
SWIDTH 560 0
DWIDTH 7 0
BBX 6 2 0 3
BITMAP
fc
fc
ENDCHAR
STARTCHAR 46
ENCODING 46
SWIDTH 560 0
DWIDTH 7 0
BBX 4 3 1 -1
BITMAP
60
f0
60
ENDCHAR
STARTCHAR 47
ENCODING 47
SWIDTH 560 0
DWIDTH 7 0
BBX 6 9 0 0
BITMAP
0c
0c
18
18
30
60
60
c0
c0
ENDCHAR
STARTCHAR 48
ENCODING 48
SWIDTH 560 0
DWIDTH 7 0
BBX 6 8 0 0
BITMAP
78
cc
cc
dc
ec
cc
cc
78
ENDCHAR
STARTCHAR 49
ENCODING 49
SWIDTH 560 0
DWIDTH 7 0
BBX 6 8 0 0
BITMAP
30
70
b0
30
30
30
30
fc
ENDCHAR
STARTCHAR 50
ENCODING 50
SWIDTH 560 0
DWIDTH 7 0
BBX 6 8 0 0
BITMAP
78
cc
cc
0c
38
60
c0
fc
ENDCHAR
STARTCHAR 51
ENCODING 51
SWIDTH 560 0
DWIDTH 7 0
BBX 6 8 0 0
BITMAP
78
cc
0c
78
0c
0c
cc
78
ENDCHAR
STARTCHAR 52
ENCODING 52
SWIDTH 560 0
DWIDTH 7 0
BBX 6 8 0 0
BITMAP
0c
1c
3c
6c
cc
fc
0c
0c
ENDCHAR
STARTCHAR 53
ENCODING 53
SWIDTH 560 0
DWIDTH 7 0
BBX 6 8 0 0
BITMAP
fc
c0
f8
cc
0c
0c
cc
78
ENDCHAR
STARTCHAR 54
ENCODING 54
SWIDTH 560 0
DWIDTH 7 0
BBX 6 8 0 0
BITMAP
78
cc
c0
f8
cc
cc
cc
78
ENDCHAR
STARTCHAR 55
ENCODING 55
SWIDTH 560 0
DWIDTH 7 0
BBX 6 8 0 0
BITMAP
fc
0c
18
18
30
30
60
60
ENDCHAR
STARTCHAR 56
ENCODING 56
SWIDTH 560 0
DWIDTH 7 0
BBX 6 8 0 0
BITMAP
78
cc
cc
78
cc
cc
cc
78
ENDCHAR
STARTCHAR 57
ENCODING 57
SWIDTH 560 0
DWIDTH 7 0
BBX 6 8 0 0
BITMAP
78
cc
cc
cc
7c
0c
cc
78
ENDCHAR
STARTCHAR 58
ENCODING 58
SWIDTH 560 0
DWIDTH 7 0
BBX 4 8 1 -1
BITMAP
60
f0
60
00
00
60
f0
60
ENDCHAR
STARTCHAR 59
ENCODING 59
SWIDTH 560 0
DWIDTH 7 0
BBX 4 8 1 -1
BITMAP
60
f0
60
00
70
70
60
c0
ENDCHAR
STARTCHAR 60
ENCODING 60
SWIDTH 560 0
DWIDTH 7 0
BBX 6 9 0 0
BITMAP
0c
18
30
60
c0
60
30
18
0c
ENDCHAR
STARTCHAR 61
ENCODING 61
SWIDTH 560 0
DWIDTH 7 0
BBX 6 5 0 2
BITMAP
fc
fc
00
fc
fc
ENDCHAR
STARTCHAR 62
ENCODING 62
SWIDTH 560 0
DWIDTH 7 0
BBX 6 9 0 0
BITMAP
c0
60
30
18
0c
18
30
60
c0
ENDCHAR
STARTCHAR 63
ENCODING 63
SWIDTH 560 0
DWIDTH 7 0
BBX 6 8 0 0
BITMAP
78
cc
0c
38
30
00
30
30
ENDCHAR
STARTCHAR 64
ENCODING 64
SWIDTH 560 0
DWIDTH 7 0
BBX 6 8 0 0
BITMAP
78
8c
bc
ac
bc
80
8c
78
ENDCHAR
STARTCHAR 65
ENCODING 65
SWIDTH 560 0
DWIDTH 7 0
BBX 6 8 0 0
BITMAP
78
cc
cc
cc
fc
cc
cc
cc
ENDCHAR
STARTCHAR 66
ENCODING 66
SWIDTH 560 0
DWIDTH 7 0
BBX 6 8 0 0
BITMAP
f8
cc
cc
f8
cc
cc
cc
f8
ENDCHAR
STARTCHAR 67
ENCODING 67
SWIDTH 560 0
DWIDTH 7 0
BBX 6 8 0 0
BITMAP
78
cc
c0
c0
c0
c0
cc
78
ENDCHAR
STARTCHAR 68
ENCODING 68
SWIDTH 560 0
DWIDTH 7 0
BBX 6 8 0 0
BITMAP
f8
cc
cc
cc
cc
cc
cc
f8
ENDCHAR
STARTCHAR 69
ENCODING 69
SWIDTH 560 0
DWIDTH 7 0
BBX 6 8 0 0
BITMAP
fc
c0
c0
f8
c0
c0
c0
fc
ENDCHAR
STARTCHAR 70
ENCODING 70
SWIDTH 560 0
DWIDTH 7 0
BBX 6 8 0 0
BITMAP
fc
c0
c0
f8
c0
c0
c0
c0
ENDCHAR
STARTCHAR 71
ENCODING 71
SWIDTH 560 0
DWIDTH 7 0
BBX 6 8 0 0
BITMAP
78
cc
c0
c0
dc
cc
cc
7c
ENDCHAR
STARTCHAR 72
ENCODING 72
SWIDTH 560 0
DWIDTH 7 0
BBX 6 8 0 0
BITMAP
cc
cc
cc
fc
cc
cc
cc
cc
ENDCHAR
STARTCHAR 73
ENCODING 73
SWIDTH 560 0
DWIDTH 7 0
BBX 6 8 0 0
BITMAP
fc
30
30
30
30
30
30
fc
ENDCHAR
STARTCHAR 74
ENCODING 74
SWIDTH 560 0
DWIDTH 7 0
BBX 6 8 0 0
BITMAP
0c
0c
0c
0c
0c
0c
cc
78
ENDCHAR
STARTCHAR 75
ENCODING 75
SWIDTH 560 0
DWIDTH 7 0
BBX 6 8 0 0
BITMAP
cc
d8
f0
e0
e0
f0
d8
cc
ENDCHAR
STARTCHAR 76
ENCODING 76
SWIDTH 560 0
DWIDTH 7 0
BBX 6 8 0 0
BITMAP
c0
c0
c0
c0
c0
c0
c0
fc
ENDCHAR
STARTCHAR 77
ENCODING 77
SWIDTH 560 0
DWIDTH 7 0
BBX 6 8 0 0
BITMAP
84
cc
fc
fc
cc
cc
cc
cc
ENDCHAR
STARTCHAR 78
ENCODING 78
SWIDTH 560 0
DWIDTH 7 0
BBX 6 8 0 0
BITMAP
cc
ec
ec
fc
dc
dc
cc
cc
ENDCHAR
STARTCHAR 79
ENCODING 79
SWIDTH 560 0
DWIDTH 7 0
BBX 6 8 0 0
BITMAP
78
cc
cc
cc
cc
cc
cc
78
ENDCHAR
STARTCHAR 80
ENCODING 80
SWIDTH 560 0
DWIDTH 7 0
BBX 6 8 0 0
BITMAP
f8
cc
cc
f8
c0
c0
c0
c0
ENDCHAR
STARTCHAR 81
ENCODING 81
SWIDTH 560 0
DWIDTH 7 0
BBX 6 9 0 -1
BITMAP
78
cc
cc
cc
cc
ec
dc
78
0c
ENDCHAR
STARTCHAR 82
ENCODING 82
SWIDTH 560 0
DWIDTH 7 0
BBX 6 8 0 0
BITMAP
f8
cc
cc
f8
f0
d8
cc
cc
ENDCHAR
STARTCHAR 83
ENCODING 83
SWIDTH 560 0
DWIDTH 7 0
BBX 6 8 0 0
BITMAP
78
cc
c0
78
0c
0c
cc
78
ENDCHAR
STARTCHAR 84
ENCODING 84
SWIDTH 560 0
DWIDTH 7 0
BBX 6 8 0 0
BITMAP
fc
30
30
30
30
30
30
30
ENDCHAR
STARTCHAR 85
ENCODING 85
SWIDTH 560 0
DWIDTH 7 0
BBX 6 8 0 0
BITMAP
cc
cc
cc
cc
cc
cc
cc
78
ENDCHAR
STARTCHAR 86
ENCODING 86
SWIDTH 560 0
DWIDTH 7 0
BBX 6 8 0 0
BITMAP
cc
cc
cc
48
48
78
30
30
ENDCHAR
STARTCHAR 87
ENCODING 87
SWIDTH 560 0
DWIDTH 7 0
BBX 6 8 0 0
BITMAP
cc
cc
cc
cc
fc
fc
cc
84
ENDCHAR
STARTCHAR 88
ENCODING 88
SWIDTH 560 0
DWIDTH 7 0
BBX 6 8 0 0
BITMAP
84
cc
48
30
78
48
cc
84
ENDCHAR
STARTCHAR 89
ENCODING 89
SWIDTH 560 0
DWIDTH 7 0
BBX 6 8 0 0
BITMAP
cc
cc
78
78
30
30
30
30
ENDCHAR
STARTCHAR 90
ENCODING 90
SWIDTH 560 0
DWIDTH 7 0
BBX 6 8 0 0
BITMAP
fc
0c
18
30
60
c0
c0
fc
ENDCHAR
STARTCHAR 91
ENCODING 91
SWIDTH 560 0
DWIDTH 7 0
BBX 4 9 1 0
BITMAP
f0
c0
c0
c0
c0
c0
c0
c0
f0
ENDCHAR
STARTCHAR 92
ENCODING 92
SWIDTH 560 0
DWIDTH 7 0
BBX 6 9 0 0
BITMAP
c0
c0
60
60
30
18
18
0c
0c
ENDCHAR
STARTCHAR 93
ENCODING 93
SWIDTH 560 0
DWIDTH 7 0
BBX 4 9 1 0
BITMAP
f0
30
30
30
30
30
30
30
f0
ENDCHAR
STARTCHAR 94
ENCODING 94
SWIDTH 560 0
DWIDTH 7 0
BBX 6 4 0 5
BITMAP
30
78
cc
84
ENDCHAR
STARTCHAR 95
ENCODING 95
SWIDTH 560 0
DWIDTH 7 0
BBX 6 2 0 -1
BITMAP
fc
fc
ENDCHAR
STARTCHAR 96
ENCODING 96
SWIDTH 560 0
DWIDTH 7 0
BBX 4 4 1 5
BITMAP
e0
e0
60
30
ENDCHAR
STARTCHAR 97
ENCODING 97
SWIDTH 560 0
DWIDTH 7 0
BBX 6 6 0 0
BITMAP
78
0c
7c
cc
cc
7c
ENDCHAR
STARTCHAR 98
ENCODING 98
SWIDTH 560 0
DWIDTH 7 0
BBX 6 9 0 0
BITMAP
c0
c0
c0
f8
cc
cc
cc
cc
f8
ENDCHAR
STARTCHAR 99
ENCODING 99
SWIDTH 560 0
DWIDTH 7 0
BBX 6 6 0 0
BITMAP
78
cc
c0
c0
cc
78
ENDCHAR
STARTCHAR 100
ENCODING 100
SWIDTH 560 0
DWIDTH 7 0
BBX 6 9 0 0
BITMAP
0c
0c
0c
7c
cc
cc
cc
cc
7c
ENDCHAR
STARTCHAR 101
ENCODING 101
SWIDTH 560 0
DWIDTH 7 0
BBX 6 6 0 0
BITMAP
78
cc
fc
c0
cc
78
ENDCHAR
STARTCHAR 102
ENCODING 102
SWIDTH 560 0
DWIDTH 7 0
BBX 6 9 0 0
BITMAP
38
6c
60
60
f0
60
60
60
60
ENDCHAR
STARTCHAR 103
ENCODING 103
SWIDTH 560 0
DWIDTH 7 0
BBX 6 8 0 -2
BITMAP
74
cc
cc
78
c0
78
cc
78
ENDCHAR
STARTCHAR 104
ENCODING 104
SWIDTH 560 0
DWIDTH 7 0
BBX 6 9 0 0
BITMAP
c0
c0
c0
f8
cc
cc
cc
cc
cc
ENDCHAR
STARTCHAR 105
ENCODING 105
SWIDTH 560 0
DWIDTH 7 0
BBX 6 9 0 0
BITMAP
30
30
00
70
30
30
30
30
fc
ENDCHAR
STARTCHAR 106
ENCODING 106
SWIDTH 560 0
DWIDTH 7 0
BBX 6 11 0 -2
BITMAP
0c
0c
00
0c
0c
0c
0c
0c
0c
cc
78
ENDCHAR
STARTCHAR 107
ENCODING 107
SWIDTH 560 0
DWIDTH 7 0
BBX 6 9 0 0
BITMAP
c0
c0
c0
cc
d8
f0
f0
d8
cc
ENDCHAR
STARTCHAR 108
ENCODING 108
SWIDTH 560 0
DWIDTH 7 0
BBX 6 9 0 0
BITMAP
70
30
30
30
30
30
30
30
fc
ENDCHAR
STARTCHAR 109
ENCODING 109
SWIDTH 560 0
DWIDTH 7 0
BBX 6 6 0 0
BITMAP
d8
fc
fc
cc
cc
cc
ENDCHAR
STARTCHAR 110
ENCODING 110
SWIDTH 560 0
DWIDTH 7 0
BBX 6 6 0 0
BITMAP
f8
cc
cc
cc
cc
cc
ENDCHAR
STARTCHAR 111
ENCODING 111
SWIDTH 560 0
DWIDTH 7 0
BBX 6 6 0 0
BITMAP
78
cc
cc
cc
cc
78
ENDCHAR
STARTCHAR 112
ENCODING 112
SWIDTH 560 0
DWIDTH 7 0
BBX 6 8 0 -2
BITMAP
f8
cc
cc
cc
f8
c0
c0
c0
ENDCHAR
STARTCHAR 113
ENCODING 113
SWIDTH 560 0
DWIDTH 7 0
BBX 6 8 0 -2
BITMAP
7c
cc
cc
cc
7c
0c
0c
0c
ENDCHAR
STARTCHAR 114
ENCODING 114
SWIDTH 560 0
DWIDTH 7 0
BBX 6 6 0 0
BITMAP
f8
cc
c0
c0
c0
c0
ENDCHAR
STARTCHAR 115
ENCODING 115
SWIDTH 560 0
DWIDTH 7 0
BBX 6 6 0 0
BITMAP
78
cc
60
18
cc
78
ENDCHAR
STARTCHAR 116
ENCODING 116
SWIDTH 560 0
DWIDTH 7 0
BBX 6 8 0 0
BITMAP
60
60
f8
60
60
60
6c
38
ENDCHAR
STARTCHAR 117
ENCODING 117
SWIDTH 560 0
DWIDTH 7 0
BBX 6 6 0 0
BITMAP
cc
cc
cc
cc
cc
7c
ENDCHAR
STARTCHAR 118
ENCODING 118
SWIDTH 560 0
DWIDTH 7 0
BBX 6 6 0 0
BITMAP
cc
cc
cc
78
78
30
ENDCHAR
STARTCHAR 119
ENCODING 119
SWIDTH 560 0
DWIDTH 7 0
BBX 6 6 0 0
BITMAP
cc
cc
cc
fc
fc
48
ENDCHAR
STARTCHAR 120
ENCODING 120
SWIDTH 560 0
DWIDTH 7 0
BBX 6 6 0 0
BITMAP
cc
cc
78
78
cc
cc
ENDCHAR
STARTCHAR 121
ENCODING 121
SWIDTH 560 0
DWIDTH 7 0
BBX 6 8 0 -2
BITMAP
cc
cc
cc
cc
7c
0c
0c
78
ENDCHAR
STARTCHAR 122
ENCODING 122
SWIDTH 560 0
DWIDTH 7 0
BBX 6 6 0 0
BITMAP
fc
0c
18
60
c0
fc
ENDCHAR
STARTCHAR 123
ENCODING 123
SWIDTH 560 0
DWIDTH 7 0
BBX 4 9 1 0
BITMAP
70
c0
c0
60
c0
60
c0
c0
70
ENDCHAR
STARTCHAR 124
ENCODING 124
SWIDTH 560 0
DWIDTH 7 0
BBX 2 9 2 0
BITMAP
c0
c0
c0
c0
c0
c0
c0
c0
c0
ENDCHAR
STARTCHAR 125
ENCODING 125
SWIDTH 560 0
DWIDTH 7 0
BBX 4 9 1 0
BITMAP
e0
30
30
60
30
60
30
30
e0
ENDCHAR
STARTCHAR 126
ENCODING 126
SWIDTH 560 0
DWIDTH 7 0
BBX 6 3 0 6
BITMAP
64
fc
98
ENDCHAR
STARTCHAR 127
ENCODING 127
SWIDTH 560 0
DWIDTH 7 0
BBX 1 1 0 -2
BITMAP
00
ENDCHAR
STARTCHAR 160
ENCODING 160
SWIDTH 560 0
DWIDTH 7 0
BBX 1 1 0 -2
BITMAP
00
ENDCHAR
STARTCHAR 161
ENCODING 161
SWIDTH 560 0
DWIDTH 7 0
BBX 6 10 0 -2
BITMAP
78
cc
cc
cc
fc
cc
cc
cc
18
0c
ENDCHAR
STARTCHAR 162
ENCODING 162
SWIDTH 560 0
DWIDTH 7 0
BBX 6 2 0 8
BITMAP
cc
78
ENDCHAR
STARTCHAR 163
ENCODING 163
SWIDTH 560 0
DWIDTH 7 0
BBX 6 8 0 0
BITMAP
68
78
70
60
e0
e0
60
7c
ENDCHAR
STARTCHAR 164
ENCODING 164
SWIDTH 560 0
DWIDTH 7 0
BBX 6 6 0 1
BITMAP
cc
fc
48
48
fc
cc
ENDCHAR
STARTCHAR 165
ENCODING 165
SWIDTH 560 0
DWIDTH 7 0
BBX 6 9 0 0
BITMAP
1c
cc
d8
c0
c0
c0
c0
c0
fc
ENDCHAR
STARTCHAR 166
ENCODING 166
SWIDTH 560 0
DWIDTH 7 0
BBX 6 11 0 0
BITMAP
1c
70
00
78
cc
c0
78
0c
0c
cc
78
ENDCHAR
STARTCHAR 167
ENCODING 167
SWIDTH 560 0
DWIDTH 7 0
BBX 6 10 0 0
BITMAP
78
cc
c0
78
cc
cc
78
0c
cc
78
ENDCHAR
STARTCHAR 168
ENCODING 168
SWIDTH 560 0
DWIDTH 7 0
BBX 5 2 1 8
BITMAP
d8
d8
ENDCHAR
STARTCHAR 169
ENCODING 169
SWIDTH 560 0
DWIDTH 7 0
BBX 6 11 0 0
BITMAP
6c
38
00
78
cc
c0
78
0c
0c
cc
78
ENDCHAR
STARTCHAR 170
ENCODING 170
SWIDTH 560 0
DWIDTH 7 0
BBX 6 10 0 -2
BITMAP
78
cc
c0
78
0c
0c
cc
78
30
60
ENDCHAR
STARTCHAR 171
ENCODING 171
SWIDTH 560 0
DWIDTH 7 0
BBX 6 11 0 0
BITMAP
6c
38
00
fc
30
30
30
30
30
30
30
ENDCHAR
STARTCHAR 172
ENCODING 172
SWIDTH 560 0
DWIDTH 7 0
BBX 6 11 0 0
BITMAP
1c
70
00
fc
0c
18
30
60
c0
c0
fc
ENDCHAR
STARTCHAR 173
ENCODING 173
SWIDTH 560 0
DWIDTH 7 0
BBX 5 2 1 4
BITMAP
f8
f8
ENDCHAR
STARTCHAR 174
ENCODING 174
SWIDTH 560 0
DWIDTH 7 0
BBX 6 11 0 0
BITMAP
6c
38
00
fc
0c
18
30
60
c0
c0
fc
ENDCHAR
STARTCHAR 175
ENCODING 175
SWIDTH 560 0
DWIDTH 7 0
BBX 6 10 0 0
BITMAP
30
00
fc
0c
18
30
60
c0
c0
fc
ENDCHAR
STARTCHAR 176
ENCODING 176
SWIDTH 560 0
DWIDTH 7 0
BBX 6 4 0 5
BITMAP
78
cc
cc
78
ENDCHAR
STARTCHAR 177
ENCODING 177
SWIDTH 560 0
DWIDTH 7 0
BBX 6 8 0 -2
BITMAP
78
0c
7c
cc
cc
7c
18
0c
ENDCHAR
STARTCHAR 178
ENCODING 178
SWIDTH 560 0
DWIDTH 7 0
BBX 4 2 2 -2
BITMAP
c0
70
ENDCHAR
STARTCHAR 179
ENCODING 179
SWIDTH 560 0
DWIDTH 7 0
BBX 6 9 0 0
BITMAP
70
34
3c
38
70
f0
b0
30
fc
ENDCHAR
STARTCHAR 180
ENCODING 180
SWIDTH 560 0
DWIDTH 7 0
BBX 5 2 1 8
BITMAP
38
e0
ENDCHAR
STARTCHAR 181
ENCODING 181
SWIDTH 560 0
DWIDTH 7 0
BBX 6 10 0 0
BITMAP
1c
ec
68
60
60
60
60
60
60
f8
ENDCHAR
STARTCHAR 182
ENCODING 182
SWIDTH 560 0
DWIDTH 7 0
BBX 6 9 0 0
BITMAP
1c
70
00
78
cc
60
18
cc
78
ENDCHAR
STARTCHAR 183
ENCODING 183
SWIDTH 560 0
DWIDTH 7 0
BBX 5 2 1 8
BITMAP
d8
70
ENDCHAR
STARTCHAR 184
ENCODING 184
SWIDTH 560 0
DWIDTH 7 0
BBX 4 2 1 -2
BITMAP
30
e0
ENDCHAR
STARTCHAR 185
ENCODING 185
SWIDTH 560 0
DWIDTH 7 0
BBX 6 9 0 0
BITMAP
6c
38
00
78
cc
60
18
cc
78
ENDCHAR
STARTCHAR 186
ENCODING 186
SWIDTH 560 0
DWIDTH 7 0
BBX 6 8 0 -2
BITMAP
78
cc
60
18
cc
78
30
60
ENDCHAR
STARTCHAR 187
ENCODING 187
SWIDTH 560 0
DWIDTH 7 0
BBX 6 10 0 0
BITMAP
1c
0c
68
60
f8
60
60
60
6c
38
ENDCHAR
STARTCHAR 188
ENCODING 188
SWIDTH 560 0
DWIDTH 7 0
BBX 6 9 0 0
BITMAP
1c
70
00
fc
0c
18
60
c0
fc
ENDCHAR
STARTCHAR 189
ENCODING 189
SWIDTH 560 0
DWIDTH 7 0
BBX 7 2 0 8
BITMAP
66
cc
ENDCHAR
STARTCHAR 190
ENCODING 190
SWIDTH 560 0
DWIDTH 7 0
BBX 6 9 0 0
BITMAP
6c
38
00
fc
0c
18
60
c0
fc
ENDCHAR
STARTCHAR 191
ENCODING 191
SWIDTH 560 0
DWIDTH 7 0
BBX 6 8 0 0
BITMAP
30
00
fc
0c
18
60
c0
fc
ENDCHAR
STARTCHAR 192
ENCODING 192
SWIDTH 560 0
DWIDTH 7 0
BBX 6 11 0 0
BITMAP
1c
70
00
f8
cc
cc
f8
f0
d8
cc
cc
ENDCHAR
STARTCHAR 193
ENCODING 193
SWIDTH 560 0
DWIDTH 7 0
BBX 6 11 0 0
BITMAP
1c
70
00
78
cc
cc
cc
fc
cc
cc
cc
ENDCHAR
STARTCHAR 194
ENCODING 194
SWIDTH 560 0
DWIDTH 7 0
BBX 6 11 0 0
BITMAP
30
cc
00
78
cc
cc
cc
fc
cc
cc
cc
ENDCHAR
STARTCHAR 195
ENCODING 195
SWIDTH 560 0
DWIDTH 7 0
BBX 6 11 0 0
BITMAP
cc
78
00
78
cc
cc
cc
fc
cc
cc
cc
ENDCHAR
STARTCHAR 196
ENCODING 196
SWIDTH 560 0
DWIDTH 7 0
BBX 6 10 0 0
BITMAP
cc
00
78
cc
cc
cc
fc
cc
cc
cc
ENDCHAR
STARTCHAR 197
ENCODING 197
SWIDTH 560 0
DWIDTH 7 0
BBX 6 11 0 0
BITMAP
1c
70
00
c0
c0
c0
c0
c0
c0
c0
fc
ENDCHAR
STARTCHAR 198
ENCODING 198
SWIDTH 560 0
DWIDTH 7 0
BBX 6 11 0 0
BITMAP
1c
70
00
78
cc
c0
c0
c0
c0
cc
78
ENDCHAR
STARTCHAR 199
ENCODING 199
SWIDTH 560 0
DWIDTH 7 0
BBX 6 10 0 -2
BITMAP
78
cc
c0
c0
c0
c0
cc
78
30
60
ENDCHAR
STARTCHAR 200
ENCODING 200
SWIDTH 560 0
DWIDTH 7 0
BBX 6 11 0 0
BITMAP
6c
38
00
78
cc
c0
c0
c0
c0
cc
78
ENDCHAR
STARTCHAR 201
ENCODING 201
SWIDTH 560 0
DWIDTH 7 0
BBX 6 11 0 0
BITMAP
1c
70
00
fc
c0
c0
f8
c0
c0
c0
fc
ENDCHAR
STARTCHAR 202
ENCODING 202
SWIDTH 560 0
DWIDTH 7 0
BBX 6 10 0 -2
BITMAP
fc
c0
c0
f8
c0
c0
c0
fc
18
0c
ENDCHAR
STARTCHAR 203
ENCODING 203
SWIDTH 560 0
DWIDTH 7 0
BBX 6 10 0 0
BITMAP
cc
00
fc
c0
c0
f8
c0
c0
c0
fc
ENDCHAR
STARTCHAR 204
ENCODING 204
SWIDTH 560 0
DWIDTH 7 0
BBX 6 11 0 0
BITMAP
6c
38
00
fc
c0
c0
f8
c0
c0
c0
fc
ENDCHAR
STARTCHAR 205
ENCODING 205
SWIDTH 560 0
DWIDTH 7 0
BBX 6 11 0 0
BITMAP
1c
70
00
fc
30
30
30
30
30
30
fc
ENDCHAR
STARTCHAR 206
ENCODING 206
SWIDTH 560 0
DWIDTH 7 0
BBX 6 11 0 0
BITMAP
78
cc
00
fc
30
30
30
30
30
30
fc
ENDCHAR
STARTCHAR 207
ENCODING 207
SWIDTH 560 0
DWIDTH 7 0
BBX 6 11 0 0
BITMAP
6c
38
00
f8
cc
cc
cc
cc
cc
cc
f8
ENDCHAR
STARTCHAR 208
ENCODING 208
SWIDTH 560 0
DWIDTH 7 0
BBX 6 8 0 0
BITMAP
f8
6c
6c
ec
6c
6c
6c
f8
ENDCHAR
STARTCHAR 209
ENCODING 209
SWIDTH 560 0
DWIDTH 7 0
BBX 6 11 0 0
BITMAP
1c
70
00
cc
ec
ec
fc
dc
dc
cc
cc
ENDCHAR
STARTCHAR 210
ENCODING 210
SWIDTH 560 0
DWIDTH 7 0
BBX 6 11 0 0
BITMAP
6c
38
00
cc
ec
ec
fc
dc
dc
cc
cc
ENDCHAR
STARTCHAR 211
ENCODING 211
SWIDTH 560 0
DWIDTH 7 0
BBX 6 11 0 0
BITMAP
1c
70
00
78
cc
cc
cc
cc
cc
cc
78
ENDCHAR
STARTCHAR 212
ENCODING 212
SWIDTH 560 0
DWIDTH 7 0
BBX 6 11 0 0
BITMAP
78
cc
00
78
cc
cc
cc
cc
cc
cc
78
ENDCHAR
STARTCHAR 213
ENCODING 213
SWIDTH 560 0
DWIDTH 7 0
BBX 7 11 0 0
BITMAP
66
cc
00
78
cc
cc
cc
cc
cc
cc
78
ENDCHAR
STARTCHAR 214
ENCODING 214
SWIDTH 560 0
DWIDTH 7 0
BBX 6 10 0 0
BITMAP
cc
00
78
cc
cc
cc
cc
cc
cc
78
ENDCHAR
STARTCHAR 215
ENCODING 215
SWIDTH 560 0
DWIDTH 7 0
BBX 6 5 0 1
BITMAP
cc
78
30
78
cc
ENDCHAR
STARTCHAR 216
ENCODING 216
SWIDTH 560 0
DWIDTH 7 0
BBX 6 11 0 0
BITMAP
6c
38
00
f8
cc
cc
f8
f0
d8
cc
cc
ENDCHAR
STARTCHAR 217
ENCODING 217
SWIDTH 560 0
DWIDTH 7 0
BBX 6 11 0 0
BITMAP
30
48
30
cc
cc
cc
cc
cc
cc
cc
78
ENDCHAR
STARTCHAR 218
ENCODING 218
SWIDTH 560 0
DWIDTH 7 0
BBX 6 11 0 0
BITMAP
1c
70
00
cc
cc
cc
cc
cc
cc
cc
78
ENDCHAR
STARTCHAR 219
ENCODING 219
SWIDTH 560 0
DWIDTH 7 0
BBX 7 11 0 0
BITMAP
66
cc
00
cc
cc
cc
cc
cc
cc
cc
78
ENDCHAR
STARTCHAR 220
ENCODING 220
SWIDTH 560 0
DWIDTH 7 0
BBX 6 10 0 0
BITMAP
cc
00
cc
cc
cc
cc
cc
cc
cc
78
ENDCHAR
STARTCHAR 221
ENCODING 221
SWIDTH 560 0
DWIDTH 7 0
BBX 6 11 0 0
BITMAP
1c
70
00
cc
cc
78
78
30
30
30
30
ENDCHAR
STARTCHAR 222
ENCODING 222
SWIDTH 560 0
DWIDTH 7 0
BBX 6 10 0 -2
BITMAP
fc
30
30
30
30
30
30
30
18
30
ENDCHAR
STARTCHAR 223
ENCODING 223
SWIDTH 560 0
DWIDTH 7 0
BBX 6 9 0 -1
BITMAP
78
cc
cc
f8
cc
cc
ec
d8
80
ENDCHAR
STARTCHAR 224
ENCODING 224
SWIDTH 560 0
DWIDTH 7 0
BBX 6 9 0 0
BITMAP
1c
70
00
f8
cc
c0
c0
c0
c0
ENDCHAR
STARTCHAR 225
ENCODING 225
SWIDTH 560 0
DWIDTH 7 0
BBX 6 9 0 0
BITMAP
1c
70
00
78
0c
7c
cc
cc
7c
ENDCHAR
STARTCHAR 226
ENCODING 226
SWIDTH 560 0
DWIDTH 7 0
BBX 6 9 0 0
BITMAP
38
6c
00
78
0c
7c
cc
cc
7c
ENDCHAR
STARTCHAR 227
ENCODING 227
SWIDTH 560 0
DWIDTH 7 0
BBX 6 9 0 0
BITMAP
cc
78
00
78
0c
7c
cc
cc
7c
ENDCHAR
STARTCHAR 228
ENCODING 228
SWIDTH 560 0
DWIDTH 7 0
BBX 6 9 0 0
BITMAP
6c
00
00
78
0c
7c
cc
cc
7c
ENDCHAR
STARTCHAR 229
ENCODING 229
SWIDTH 560 0
DWIDTH 7 0
BBX 6 11 0 0
BITMAP
1c
70
00
70
30
30
30
30
30
30
fc
ENDCHAR
STARTCHAR 230
ENCODING 230
SWIDTH 560 0
DWIDTH 7 0
BBX 6 9 0 0
BITMAP
1c
70
00
78
cc
c0
c0
cc
78
ENDCHAR
STARTCHAR 231
ENCODING 231
SWIDTH 560 0
DWIDTH 7 0
BBX 6 8 0 -2
BITMAP
78
cc
c0
c0
cc
78
30
60
ENDCHAR
STARTCHAR 232
ENCODING 232
SWIDTH 560 0
DWIDTH 7 0
BBX 6 9 0 0
BITMAP
6c
38
00
78
cc
c0
c0
cc
78
ENDCHAR
STARTCHAR 233
ENCODING 233
SWIDTH 560 0
DWIDTH 7 0
BBX 6 9 0 0
BITMAP
1c
70
00
78
cc
fc
c0
cc
78
ENDCHAR
STARTCHAR 234
ENCODING 234
SWIDTH 560 0
DWIDTH 7 0
BBX 6 8 0 -2
BITMAP
78
cc
fc
c0
cc
78
30
18
ENDCHAR
STARTCHAR 235
ENCODING 235
SWIDTH 560 0
DWIDTH 7 0
BBX 6 8 0 0
BITMAP
cc
00
78
cc
fc
c0
cc
78
ENDCHAR
STARTCHAR 236
ENCODING 236
SWIDTH 560 0
DWIDTH 7 0
BBX 6 9 0 0
BITMAP
6c
38
00
78
cc
fc
c0
cc
78
ENDCHAR
STARTCHAR 237
ENCODING 237
SWIDTH 560 0
DWIDTH 7 0
BBX 6 9 0 0
BITMAP
1c
70
00
70
30
30
30
30
fc
ENDCHAR
STARTCHAR 238
ENCODING 238
SWIDTH 560 0
DWIDTH 7 0
BBX 6 9 0 0
BITMAP
70
d8
00
70
30
30
30
30
fc
ENDCHAR
STARTCHAR 239
ENCODING 239
SWIDTH 560 0
DWIDTH 7 0
BBX 7 10 0 0
BITMAP
06
1a
1c
18
78
d8
d8
d8
d8
78
ENDCHAR
STARTCHAR 240
ENCODING 240
SWIDTH 560 0
DWIDTH 7 0
BBX 7 9 0 0
BITMAP
0c
1e
0c
7c
cc
cc
cc
cc
7c
ENDCHAR
STARTCHAR 241
ENCODING 241
SWIDTH 560 0
DWIDTH 7 0
BBX 6 9 0 0
BITMAP
1c
70
00
f8
cc
cc
cc
cc
cc
ENDCHAR
STARTCHAR 242
ENCODING 242
SWIDTH 560 0
DWIDTH 7 0
BBX 6 9 0 0
BITMAP
6c
38
00
f8
cc
cc
cc
cc
cc
ENDCHAR
STARTCHAR 243
ENCODING 243
SWIDTH 560 0
DWIDTH 7 0
BBX 6 9 0 0
BITMAP
1c
70
00
78
cc
cc
cc
cc
78
ENDCHAR
STARTCHAR 244
ENCODING 244
SWIDTH 560 0
DWIDTH 7 0
BBX 6 9 0 0
BITMAP
38
6c
00
78
cc
cc
cc
cc
78
ENDCHAR
STARTCHAR 245
ENCODING 245
SWIDTH 560 0
DWIDTH 7 0
BBX 7 9 0 0
BITMAP
66
cc
00
78
cc
cc
cc
cc
78
ENDCHAR
STARTCHAR 246
ENCODING 246
SWIDTH 560 0
DWIDTH 7 0
BBX 6 9 0 0
BITMAP
6c
00
00
78
cc
cc
cc
cc
78
ENDCHAR
STARTCHAR 247
ENCODING 247
SWIDTH 560 0
DWIDTH 7 0
BBX 6 7 0 1
BITMAP
30
30
00
fc
00
30
30
ENDCHAR
STARTCHAR 248
ENCODING 248
SWIDTH 560 0
DWIDTH 7 0
BBX 6 9 0 0
BITMAP
6c
38
00
f8
cc
c0
c0
c0
c0
ENDCHAR
STARTCHAR 249
ENCODING 249
SWIDTH 560 0
DWIDTH 7 0
BBX 6 10 0 0
BITMAP
30
48
30
00
cc
cc
cc
cc
cc
7c
ENDCHAR
STARTCHAR 250
ENCODING 250
SWIDTH 560 0
DWIDTH 7 0
BBX 6 9 0 0
BITMAP
1c
70
00
cc
cc
cc
cc
cc
7c
ENDCHAR
STARTCHAR 251
ENCODING 251
SWIDTH 560 0
DWIDTH 7 0
BBX 7 9 0 0
BITMAP
66
cc
00
cc
cc
cc
cc
cc
7c
ENDCHAR
STARTCHAR 252
ENCODING 252
SWIDTH 560 0
DWIDTH 7 0
BBX 6 9 0 0
BITMAP
cc
00
00
cc
cc
cc
cc
cc
7c
ENDCHAR
STARTCHAR 253
ENCODING 253
SWIDTH 560 0
DWIDTH 7 0
BBX 6 11 0 -2
BITMAP
1c
70
00
cc
cc
cc
cc
7c
0c
0c
78
ENDCHAR
STARTCHAR 254
ENCODING 254
SWIDTH 560 0
DWIDTH 7 0
BBX 6 10 0 -2
BITMAP
60
60
f8
60
60
60
6c
38
30
60
ENDCHAR
STARTCHAR 255
ENCODING 255
SWIDTH 560 0
DWIDTH 7 0
BBX 2 2 2 7
BITMAP
c0
c0
ENDCHAR
ENDFONT
